<?xml version="1.0" standalone="no"?><!DOCTYPE svg PUBLIC "-//W3C//DTD SVG 1.1//EN" "http://www.w3.org/Graphics/SVG/1.1/DTD/svg11.dtd"><svg t="1573631467309" class="icon" viewBox="0 0 1024 1024" version="1.1" xmlns="http://www.w3.org/2000/svg" p-id="2238" data-spm-anchor-id="a313x.7781069.0.i1" width="16" height="16" xmlns:xlink="http://www.w3.org/1999/xlink"><defs><style type="text/css"></style></defs><path d="M696.696856 510.502559a227.261613 227.261613 0 0 0-152.763929-60.147209V152.364611a165.592006 165.592006 0 0 1 87.350719 43.67536c26.205216 25.955642 26.205216 44.923227 26.205216 91.343894a37.810383 37.810383 0 0 0 75.595808-0.249573c0-51.661711 0-96.085791-48.342384-144.0039a241.087984 241.087984 0 0 0-140.684572-66.386546V37.810383a37.810383 37.810383 0 0 0-75.620765 0v40.18133a193.095004 193.095004 0 0 0-118.422618 50.16427C257.372654 219.999025 253.104948 376.731172 340.879942 463.582744a230.730685 230.730685 0 0 0 127.557007 56.902754v333.1806a174.951011 174.951011 0 0 1-74.098367-43.67536c-45.297587-44.923227-69.007068-77.118206-64.739362-119.545698a37.810383 37.810383 0 0 0-75.221448-7.487204c-8.011309 79.114794 38.359444 132.273946 86.50217 179.942481a248.924592 248.924592 0 0 0 127.557007 67.634414v55.654886a37.810383 37.810383 0 0 0 75.620765 0v-51.911284a248.600146 248.600146 0 0 0 152.639142-423.775774z m-302.483061-99.829393c-57.202242-56.653181-52.784792-168.212527 9.134389-229.607604a113.805508 113.805508 0 0 1 64.889106-27.95223V444.61516a148.546137 148.546137 0 0 1-74.023495-33.941994z m249.024421 399.317572a175.574945 175.574945 0 0 1-99.305289 48.916403V525.476968a146.299976 146.299976 0 0 1 99.305289 37.935169 173.378699 173.378699 0 0 1 0.024957 246.578601z" p-id="2239"></path></svg>