<?xml version="1.0" standalone="no"?><!DOCTYPE svg PUBLIC "-//W3C//DTD SVG 1.1//EN" "http://www.w3.org/Graphics/SVG/1.1/DTD/svg11.dtd"><svg t="1573631720541" class="icon" viewBox="0 0 1026 1024" version="1.1" xmlns="http://www.w3.org/2000/svg" p-id="3256" width="16.03125" height="16" xmlns:xlink="http://www.w3.org/1999/xlink"><defs><style type="text/css"></style></defs><path d="M269.3888 484.93056C135.82848 481.3824 65.44896 401.95072 58.26048 246.7328c7.18848-147.9424 77.568-225.5104 211.12832-232.7808C395.67872 24.7808 466.05824 102.43072 480.52224 246.7328c-10.8288 151.58272-81.20832 231.00928-211.13344 238.19776z m0-75.78624c72.15104 0 111.82592-54.13376 119.09632-162.4064-7.2704-97.44384-46.94528-149.71904-119.09632-156.99456-75.79136 3.6352-115.54304 55.99744-119.10144 156.99456 0.00512 108.26752 39.67488 162.4064 119.10144 162.4064z m21.65248 519.70048L659.16416 46.43328C666.35264 17.5872 682.5984 3.1232 707.8912 3.1232c28.84608 3.6352 45.08672 16.24064 48.72192 37.89312 0 7.2704-5.41696 21.65248-16.24064 43.30496 0 7.27552-1.85856 14.464-5.41696 21.65248L366.83264 988.39552c-10.82368 18.0992-28.928 28.84608-54.13376 32.48128-28.928-3.6352-43.30496-12.60544-43.30496-27.06432-3.64032-7.1936 3.54816-28.84608 21.64736-64.96768z m465.57184 81.2032c-133.56032 0-203.93984-75.79136-211.12832-227.36896 7.18848-147.94752 77.568-225.5104 211.12832-232.78592 129.92512 7.27552 200.30464 84.8384 211.12832 232.78592-10.82368 151.58272-81.2032 227.36896-211.12832 227.36896z m0-64.96256c72.15616 0 111.82592-54.13376 119.10144-162.4064-7.27552-97.44384-46.94528-149.71904-119.10144-156.99456-75.79136 7.27552-115.54304 59.55072-119.10144 156.99456 3.55328 108.27264 43.31008 162.4064 119.10144 162.4064z" fill="#515151" p-id="3257"></path></svg>